<svg xmlns="http://www.w3.org/2000/svg" viewBox="0 0 32 32">
  <rect width="32" height="32" fill="#04090f" rx="5"/>
  <!-- Archimedean spiral: 2 turns, r = 1.5 + (11/4π)·t, t ∈ [0, 4π], 32 steps -->
  <polyline
    points="17.50,16.00 17.70,16.71 17.55,17.55 16.97,18.34
            16.00,18.88 14.77,18.97 13.48,18.52 12.39,17.50
            11.75,16.00 11.76,14.24 12.51,12.51 13.98,11.12
            16.00,10.38 18.29,10.49 20.46,11.54 22.15,13.45
            23.00,16.00 22.78,18.81 21.44,21.44 19.08,23.42
            16.00,24.38 12.66,24.06  9.59,22.41  7.31,19.60
             6.25,16.00  6.67,12.14  8.62, 8.62 11.87, 6.04
            16.00, 4.88 20.39, 5.40 24.35, 7.65 27.23,11.35
            28.50,16.00"
    fill="none" stroke="#2a90cf" stroke-width="1.8"
    stroke-linecap="round" stroke-linejoin="round"/>
</svg>
